<svg xmlns="http://www.w3.org/2000/svg" width="225.815" height="30.04" version="1.0" viewBox="0 0 225.815 30.04">
    <path fill="#FFF" d="M1.023 10.703H5.9639999999999995V15.643999999999998H1.023z" transform="scale(-1) rotate(-44.996 -31.805 8.435)"/>
    <path fill="#FFF" d="M216.159 10.702H221.099V15.644H216.159z" transform="scale(-1) rotate(-45.004 -31.798 527.732)"/>
    <path fill="#636466" d="M28.602 13.297L29.875 13.297 29.875 8.209 31.877 8.209 31.877 6.936 28.602 6.936zM37.705 14.231V6.478c0-1.097-.653-2.032-1.567-2.487.182.368.293.776.293 1.213v7.753c0 .865-.375 1.619-1.016 2.146.564.602 1.016 1.28 1.016 2.259v8.619c0 1.505-1.279 2.785-2.785 2.785h-8.287v1.273h9.561c1.505 0 2.785-1.279 2.785-2.785v-8.619c0-.979-.451-1.656-1.016-2.259.639-.526 1.016-1.279 1.016-2.145z"/>
    <path fill="#636466" d="M28.602 24.212L29.875 24.212 29.875 19.087 31.877 19.087 31.877 17.813 28.602 17.813zM48.778 24.212L50.051 24.212 50.051 8.209 52.053 8.209 52.053 6.936 48.778 6.936z"/>
    <path fill="#636466" d="M56.313 3.991c.183.368.294.776.294 1.213v20.777c0 1.505-1.28 2.785-2.785 2.785h-6.774c-.438 0-.847-.112-1.215-.295.455.916 1.39 1.568 2.487 1.568h6.775c1.505 0 2.785-1.279 2.785-2.785V6.478c0-1.097-.652-2.032-1.567-2.487zM68.953 13.297L70.227 13.297 70.227 8.209 72.228 8.209 72.228 6.936 68.953 6.936zM76.438 18.823c.978-.451 1.58-1.43 1.58-2.484V6.478c0-1.11-.647-2.056-1.568-2.504.183.372.295.786.295 1.231v9.861c0 1.054-.603 2.033-1.581 2.484l1.882 11.217h-3.458l.214 1.273h4.517l-1.881-11.217zM70.685 17.813L68.953 17.813 68.953 28.767 65.71 28.767 65.71 30.04 70.227 30.04 70.227 19.087 70.899 19.087zM88.527 24.212L89.801 24.212 89.801 8.209 91.803 8.209 91.803 6.936 88.527 6.936z"/>
    <path fill="#636466" d="M96.063 3.991c.182.368.293.776.293 1.213v20.777c0 1.505-1.279 2.785-2.785 2.785h-6.776c-.437 0-.846-.112-1.213-.294.454.915 1.389 1.567 2.486 1.567h6.775c1.505 0 2.785-1.279 2.785-2.785V6.478c.002-1.097-.651-2.032-1.565-2.487zM108.703 24.212L109.976 24.212 109.976 8.209 111.978 8.209 111.978 6.936 108.703 6.936z"/>
    <path fill="#636466" d="M116.239 3.991c.181.368.293.776.293 1.213v20.777c0 1.505-1.28 2.785-2.785 2.785h-8.288v1.273h9.561c1.505 0 2.784-1.279 2.784-2.785V6.478c.001-1.097-.651-2.032-1.565-2.487zM129.105 3.693L129.105 28.767 125.861 28.767 125.861 30.04 130.378 30.04 130.378 3.693z"/>
    <g>
        <path fill="#636466" d="M149.205 3.693L149.205 28.767 145.595 28.767 145.961 30.04 150.478 30.04 150.478 3.693zM141.375 17.249L141.375 28.767 138.133 28.767 138.133 30.04 142.648 30.04 142.648 21.676z"/>
    </g>
    <g fill="#636466">
        <path d="M161.094 19.087h3.732v-1.273h-5.006c-.441 0-.853-.109-1.222-.291.453.924 1.392 1.564 2.496 1.564zM162.823 20.78L161.552 21.077 161.552 24.212 162.823 24.212zM169.086 3.991c.183.368.294.776.294 1.213v5.345l-3.281.759v1.568l4.555-1.054V6.478c-.001-1.097-.653-2.032-1.568-2.487z"/>
        <path d="M169.086 14.869c.183.368.294.776.294 1.213v9.899c0 1.505-1.279 2.785-2.785 2.785h-6.774c-.438 0-.847-.112-1.215-.295.454.916 1.39 1.568 2.488 1.568h6.774c1.506 0 2.785-1.279 2.785-2.785v-9.9c0-1.095-.651-2.03-1.567-2.485zM161.552 6.936L161.552 13.297 162.823 13.297 162.823 8.209 164.826 8.209 164.826 6.936z"/>
    </g>
    <g>
        <path fill="#636466" d="M182.142 17.813L181.728 17.813 181.728 28.767 178.483 28.767 178.483 30.04 183.001 30.04 183.001 20.552zM191.394 3.693L189.712 3.693 185.905 15.555 190.12 28.767 186.45 28.767 186.802 29.89 186.84 30.04 191.394 30.04 187.179 16.829z"/>
    </g>
    <path fill="#636466" d="M202.016 3.693L202.016 28.767 198.772 28.767 198.772 30.04 203.289 30.04 203.289 3.693z"/>
    <path fill="#636466" d="M220.961 17.076H225.90200000000002V18.876H220.961z" transform="rotate(-45.009 223.432 17.98)"/>
    <path fill="#636466" d="M5.827 17.076H10.768V18.876H5.827z" transform="rotate(-45.004 8.297 17.976)"/>
    <g>
        <path fill="#FFF" d="M34.012 10.539c0 .866-.376 1.619-1.016 2.146.564.602 1.016 1.279 1.016 2.257v8.62c0 1.506-1.28 2.785-2.785 2.785h-9.56V0h9.56c1.505 0 2.785 1.242 2.785 2.786v7.753zm-4.554-6.023h-3.275v6.361h3.275V4.516zm0 10.879h-3.275v6.398h3.275v-6.398zM51.402 0c1.505 0 2.785 1.242 2.785 2.786v20.776c0 1.506-1.28 2.785-2.785 2.785h-6.775c-1.543 0-2.786-1.279-2.786-2.785V2.786C41.842 1.242 43.084 0 44.627 0h6.775zm-1.769 4.516h-3.275v17.277h3.275V4.516zM70.11 26.347l-1.845-10.952h-1.732v10.952h-4.516V0h9.561c1.505 0 2.748 1.242 2.748 2.786v9.861c0 1.054-.603 2.032-1.581 2.484l1.882 11.216H70.11zm-.301-21.831h-3.275v6.361h3.275V4.516zM91.152 0c1.505 0 2.784 1.242 2.784 2.786v20.776c0 1.506-1.279 2.785-2.784 2.785h-6.775c-1.543 0-2.785-1.279-2.785-2.785V2.786C81.592 1.242 82.834 0 84.377 0h6.775zm-1.769 4.516h-3.275v17.277h3.275V4.516zM111.328 0c1.505 0 2.785 1.242 2.785 2.786v20.776c0 1.506-1.279 2.785-2.785 2.785h-9.561V0h9.561zm-1.77 4.516h-3.275v17.277h3.275V4.516zM122.169 0h4.517v26.347h-4.517V0zM146.784 0v26.347h-4.516l-3.312-11.517v11.517h-4.517V0h4.479l3.312 10.803V0h4.554zM164.176 10.877c1.504 0 2.785 1.242 2.785 2.785v9.899c0 1.506-1.281 2.785-2.785 2.785H157.4c-1.544 0-2.785-1.279-2.785-2.785v-5.42l4.516-1.054v4.705h3.275v-6.398H157.4c-1.544 0-2.785-1.243-2.785-2.786V2.786c0-1.543 1.241-2.786 2.785-2.786h6.775c1.504 0 2.785 1.242 2.785 2.786V8.13l-4.555 1.054V4.516h-3.275v6.361h5.046zM183.485 13.136l4.216 13.21h-4.554l-.038-.15-3.388-10.802h-.415v10.952h-4.516V0h4.516v10.877h.34L183.109 0h4.592l-4.216 13.136zM195.08 0h4.516v26.347h-4.516V0z"/>
    </g>
</svg>
