<svg xmlns="http://www.w3.org/2000/svg" width="35.932" height="19.945" version="1.0" viewBox="0 0 35.932 19.945">
    <path fill="#ED1C24" d="M0 10.023c0 .538.51.978 1.134.978h33.665c.624 0 1.134-.439 1.134-.978 0-.537-.51-.977-1.134-.977H1.134C.51 9.047 0 9.486 0 10.023zM1.134 0C.51 0 0 .439 0 .977s.51.978 1.134.978h33.665c.624 0 1.134-.439 1.134-.978 0-.537-.51-.977-1.134-.977H1.134zM0 18.969c0 .537.51.977 1.134.977h33.665c.624 0 1.134-.439 1.134-.977s-.51-.978-1.134-.978H1.134c-.624 0-1.134.44-1.134.978z"/>
</svg>
